HIERARCHY
ROOT Hips
{
    OFFSET 0.000000 0.000000 0.000000
    CHANNELS 6 Xposition Yposition Zposition Zrotation Xrotation Yrotation
    JOINT Spine
    {
        OFFSET -0.000000 8.603107 0.000000
        CHANNELS 3 Zrotation Xrotation Yrotation
        JOINT Spine1
        {
            OFFSET -0.000000 23.906662 0.000000
            CHANNELS 3 Zrotation Xrotation Yrotation
            JOINT Neck
            {
                OFFSET -0.000000 23.808481 2.164407
                CHANNELS 3 Zrotation Xrotation Yrotation
                JOINT Head
                {
                    OFFSET -0.000000 14.688231 -2.098319
                    CHANNELS 3 Zrotation Xrotation Yrotation
                    End Site
                    {
                        OFFSET -0.000000 26.228985 0.000000
                    }
                }
            }
            JOINT LeftShoulder
            {
                OFFSET 4.178941 22.658146 -0.129871
                CHANNELS 3 Zrotation Xrotation Yrotation
                JOINT LeftArm
                {
                    OFFSET 9.497952 0.000000 0.000000
                    CHANNELS 3 Zrotation Xrotation Yrotation
                    JOINT LeftForeArm
                    {
                        OFFSET 38.855015 0.000000 0.000000
                        CHANNELS 3 Zrotation Xrotation Yrotation
                        JOINT LeftHand
                        {
                            OFFSET 24.940550 0.000000 0.000000
                            CHANNELS 3 Zrotation Xrotation Yrotation
                            End Site
                            {
                                OFFSET 15.737392 0.000000 0.000000
                            }
                        }
                    }
                }
            }
            JOINT RightShoulder
            {
                OFFSET -4.145384 22.658146 -0.129871
                CHANNELS 3 Zrotation Xrotation Yrotation
                JOINT RightArm
                {
                    OFFSET -9.497952 0.000000 0.000000
                    CHANNELS 3 Zrotation Xrotation Yrotation
                    JOINT RightForeArm
                    {
                        OFFSET -38.855015 0.000000 0.000000
                        CHANNELS 3 Zrotation Xrotation Yrotation
                        JOINT RightHand
                        {
                            OFFSET -24.940550 0.000000 0.000000
                            CHANNELS 3 Zrotation Xrotation Yrotation
                            End Site
                            {
                                OFFSET -15.737392 0.000000 0.000000
                            }
                        }
                    }
                }
            }
        }
    }
    JOINT LeftUpLeg
    {
        OFFSET 10.491594 0.000000 0.000000
        CHANNELS 3 Zrotation Xrotation Yrotation
        JOINT LeftLeg
        {
            OFFSET -0.000000 -46.080647 0.000000
            CHANNELS 3 Zrotation Xrotation Yrotation
            JOINT LeftFoot
            {
                OFFSET -0.000000 -50.184704 0.000000
                CHANNELS 3 Zrotation Xrotation Yrotation
                JOINT LeftToeBase
                {
                    OFFSET -0.000000 -6.819536 15.737392
                    CHANNELS 3 Zrotation Xrotation Yrotation
                    End Site
                    {
                        OFFSET -0.000000 0.000000 4.196638
                    }
                }
            }
        }
    }
    JOINT RightUpLeg
    {
        OFFSET -10.491594 0.000000 0.000000
        CHANNELS 3 Zrotation Xrotation Yrotation
        JOINT RightLeg
        {
            OFFSET -0.000000 -46.080647 0.000000
            CHANNELS 3 Zrotation Xrotation Yrotation
            JOINT RightFoot
            {
                OFFSET -0.000000 -50.184704 0.000000
                CHANNELS 3 Zrotation Xrotation Yrotation
                JOINT RightToeBase
                {
                    OFFSET -0.000000 -6.819536 15.737392
                    CHANNELS 3 Zrotation Xrotation Yrotation
                    End Site
                    {
                        OFFSET -0.000000 0.000000 4.196638
                    }
                }
            }
        }
    }
}
MOTION
Frames:    11
Frame Time:    0.008333
-8.877799    103.128288    40.662460    1.149915    0.146268    92.254951    0.746590    -4.679454    -0.400531    -1.968630    -3.281577    -0.487463    5.427187    17.480824    0.277880    0.688967    0.264960    0.449072    15.091598    -4.193714    -10.256351    -16.170609    -1.166719    6.999988    0.502615    -3.724308    -1.211282    -0.090265    -3.720565    1.977556    -14.928598    -1.526682    -7.009464    16.515232    -4.142443    2.664961    -0.770671    -5.453647    -0.787211    1.313194    -5.488503    -2.593321    -0.492336    1.015445    0.277285    -2.956384    10.818178    0.574562    3.090579    -9.645245    13.992125    0.000000    0.000000    0.000000    -0.530373    5.247944    -3.136011    2.303035    1.278909    -0.653626    -1.440733    -5.190628    -10.170855    0.000000    0.000000    0.000000    
-8.872540    103.134300    40.665760    1.134017    0.145609    92.253464    0.731658    -4.683746    -0.403490    -1.964886    -3.322309    -0.490389    5.451955    17.390448    0.202278    0.686685    0.241856    0.365739    15.109127    -4.202884    -10.247129    -16.132864    -1.302327    7.005256    0.556839    -3.381525    -1.075882    -0.506095    -3.385826    2.153492    -14.917892    -1.499026    -6.992431    16.526934    -4.219122    2.646222    -0.773341    -5.579113    -0.839244    1.109354    -5.610086    -2.629281    -0.499253    1.023651    0.262764    -2.946978    10.775878    0.607552    3.072569    -9.620537    13.974213    0.000000    0.000000    0.000000    -0.531396    5.266854    -3.118629    2.311619    1.219914    -0.651947    -1.448260    -5.147447    -10.184074    0.000000    0.000000    0.000000    
-8.869166    103.136566    40.668892    1.132750    0.141294    92.260101    0.726145    -4.685350    -0.406854    -1.954306    -3.331200    -0.493459    5.427119    17.335516    0.170999    0.724168    0.251231    0.335481    15.117844    -4.212214    -10.232404    -16.114113    -1.297161    6.999722    0.552195    -3.310055    -1.030381    -0.701962    -3.319135    2.294666    -14.928295    -1.487474    -7.011144    16.534594    -4.249519    2.660955    -0.748151    -5.624096    -0.877424    0.959365    -5.651360    -2.587741    -0.494425    1.031678    0.269384    -2.938743    10.762704    0.586922    3.048856    -9.621638    13.979453    0.000000    0.000000    0.000000    -0.525670    5.288788    -3.116794    2.315028    1.184641    -0.630801    -1.429789    -5.128241    -10.216821    0.000000    0.000000    0.000000    
-8.868334    103.139137    40.670097    1.118598    0.144263    92.260597    0.694195    -4.680347    -0.405833    -1.904740    -3.388191    -0.490655    5.434441    17.326885    0.136589    0.681728    0.258839    0.293241    15.088117    -4.206072    -10.241271    -16.084005    -1.330949    7.003376    0.556733    -3.229177    -0.990485    -0.928432    -3.244260    2.457870    -14.942533    -1.455406    -6.987818    16.527479    -4.272958    2.633603    -0.735159    -5.656623    -0.886006    0.840161    -5.681319    -2.608963    -0.500828    1.029132    0.278433    -2.934015    10.739898    0.603807    3.042978    -9.608092    13.961372    0.000000    0.000000    0.000000    -0.530558    5.284963    -3.121824    2.337090    1.176846    -0.654582    -1.447807    -5.126599    -10.233485    0.000000    0.000000    0.000000    
-8.863118    103.142036    40.671696    1.118916    0.142726    92.265244    0.694773    -4.689161    -0.405305    -1.915727    -3.384902    -0.490555    5.475476    17.267704    0.103539    0.631394    0.293313    0.248904    15.125048    -4.213480    -10.236901    -16.075237    -1.359535    7.003351    0.518039    -3.122602    -0.961259    -1.058908    -3.142289    2.602387    -14.936821    -1.461770    -7.008287    16.527569    -4.278603    2.649126    -0.714765    -5.653181    -0.911224    0.742872    -5.675839    -2.635067    -0.501441    1.046518    0.280950    -2.923513    10.708513    0.619622    3.007955    -9.599799    13.934871    0.000000    0.000000    0.000000    -0.532642    5.306845    -3.110861    2.347911    1.144939    -0.646270    -1.439687    -5.111485    -10.254413    0.000000    0.000000    0.000000    
-8.861446    103.144745    40.673367    1.108647    0.140786    92.276726    0.713542    -4.689466    -0.421135    -1.949312    -3.437327    -0.508984    5.447239    17.293173    0.090274    0.692154    0.271601    0.245013    15.126219    -4.194152    -10.215461    -16.028889    -1.371319    7.000318    0.500660    -3.017323    -0.923009    -1.269123    -3.043631    2.740107    -14.914184    -1.440850    -6.963279    16.522192    -4.247854    2.641051    -0.703131    -5.635900    -0.930704    0.670366    -5.657043    -2.653891    -0.496153    1.041444    0.280045    -2.928142    10.697184    0.607593    2.999842    -9.595387    13.953293    0.000000    0.000000    0.000000    -0.529034    5.299040    -3.124147    2.344485    1.141888    -0.674951    -1.427776    -5.108086    -10.219970    0.000000    0.000000    0.000000    
-8.856642    103.148911    40.673660    1.105478    0.142822    92.284676    0.693877    -4.699512    -0.420356    -1.921689    -3.448514    -0.506691    5.444355    17.274231    0.085241    0.676394    0.272197    0.236475    15.131913    -4.197003    -10.224598    -16.014175    -1.398845    7.001759    0.481326    -2.922744    -0.886679    -1.406664    -2.953674    2.825608    -14.942559    -1.450606    -6.981791    16.525974    -4.168937    2.643837    -0.681056    -5.595658    -0.938421    0.630976    -5.615923    -2.683985    -0.499145    1.030265    0.456584    -2.890242    10.727118    0.406200    2.994312    -9.589679    13.974217    0.000000    0.000000    0.000000    -0.537700    5.308423    -3.122282    2.357401    1.129323    -0.657812    -1.431800    -5.089438    -10.245488    0.000000    0.000000    0.000000    
-8.853221    103.150894    40.674278    1.103435    0.140985    92.297165    0.699784    -4.704111    -0.426256    -1.936949    -3.466154    -0.513605    5.427158    17.275543    0.018234    0.727598    0.240045    0.174726    15.155241    -4.206348    -10.212425    -16.004072    -1.350154    6.995594    0.482240    -2.842905    -0.856019    -1.610512    -2.880115    2.905891    -14.942423    -1.456931    -6.995675    16.524818    -4.086175    2.657905    -0.662403    -5.546384    -0.948798    0.624481    -5.566449    -2.691790    -0.496592    1.038537    0.476605    -2.882983    10.712323    0.387448    2.985161    -9.589458    13.962937    0.000000    0.000000    0.000000    -0.541007    5.340348    -3.111343    2.369885    1.072862    -0.623390    -1.407909    -5.056975    -10.288081    0.000000    0.000000    0.000000    
-8.849460    103.151047    40.672325    1.104196    0.147920    92.310219    0.692852    -4.711046    -0.434597    -1.939023    -3.474130    -0.521906    5.416210    17.248178    -0.002444    0.735023    0.257662    0.151390    15.165156    -4.217021    -10.203710    -15.992066    -1.286291    7.001452    0.484287    -2.746000    -0.844287    -1.784554    -2.789047    2.994739    -14.953562    -1.466881    -6.989292    16.526249    -4.009072    2.650560    -0.642133    -5.501968    -0.952082    0.600037    -5.521318    -2.690834    -0.503119    1.055184    0.457402    -2.888722    10.681164    0.419352    2.943454    -9.589396    13.954852    0.000000    0.000000    0.000000    -0.549563    5.342745    -3.102865    2.369674    1.076514    -0.662714    -1.417871    -5.063715    -10.264036    0.000000    0.000000    0.000000    
-8.845187    103.152206    40.672249    1.105252    0.149946    92.322914    0.687226    -4.720682    -0.439185    -1.944555    -3.477533    -0.526529    5.405295    17.254959    -0.039182    0.768722    0.225118    0.123284    15.190636    -4.206455    -10.214790    -15.985920    -1.262484    7.008782    0.491109    -2.607526    -0.813846    -1.962072    -2.655483    3.006131    -14.940260    -1.455232    -6.995969    16.510416    -3.947811    2.652822    -0.623282    -5.468739    -0.947342    0.597997    -5.487874    -2.693032    -0.501778    1.071425    0.453293    -2.890496    10.655430    0.416265    2.939806    -9.582191    13.952760    0.000000    0.000000    0.000000    -0.550242    5.358647    -3.115765    2.372106    1.057694    -0.642005    -1.388827    -5.056500    -10.285482    0.000000    0.000000    0.000000    
-8.848438    103.148270    40.671368    1.067157    0.148924    92.341621    0.658826    -4.777640    -0.432646    -1.900062    -3.458118    -0.517577    5.391267    17.226841    -0.078844    0.779059    0.210751    0.076374    15.177981    -4.235037    -10.248765    -15.980186    -1.201382    7.017179    0.545563    -2.520378    -0.808594    -2.212945    -2.575567    3.058139    -14.965920    -1.459234    -7.052937    16.509027    -3.909539    2.666886    -0.611221    -5.420105    -0.940910    0.638294    -5.440123    -2.705888    -0.500890    1.038655    0.447184    -2.891130    10.643424    0.382628    2.969702    -9.590077    13.987627    0.000000    0.000000    0.000000    -0.551777    5.331272    -3.087672    2.375710    1.039006    -0.652612    -1.428532    -5.051522    -10.313534    0.000000    0.000000    0.000000    
